<svg width="800" height="800" viewBox="0 0 800 800" fill="none" xmlns="http://www.w3.org/2000/svg">
<rect width="800" height="800" rx="40" fill="#0B1220"/>
<g opacity="0.18">
<path d="M40 0V800" stroke="#F59E0B" stroke-width="1"/>
<path d="M80 0V800" stroke="#F59E0B" stroke-width="1"/>
<path d="M120 0V800" stroke="#F59E0B" stroke-width="1"/>
<path d="M160 0V800" stroke="#F59E0B" stroke-width="1"/>
<path d="M200 0V800" stroke="#F59E0B" stroke-width="1"/>
<path d="M240 0V800" stroke="#F59E0B" stroke-width="1"/>
<path d="M280 0V800" stroke="#F59E0B" stroke-width="1"/>
<path d="M320 0V800" stroke="#F59E0B" stroke-width="1"/>
<path d="M360 0V800" stroke="#F59E0B" stroke-width="1"/>
<path d="M400 0V800" stroke="#F59E0B" stroke-width="1"/>
<path d="M440 0V800" stroke="#F59E0B" stroke-width="1"/>
<path d="M480 0V800" stroke="#F59E0B" stroke-width="1"/>
<path d="M520 0V800" stroke="#F59E0B" stroke-width="1"/>
<path d="M560 0V800" stroke="#F59E0B" stroke-width="1"/>
<path d="M600 0V800" stroke="#F59E0B" stroke-width="1"/>
<path d="M640 0V800" stroke="#F59E0B" stroke-width="1"/>
<path d="M680 0V800" stroke="#F59E0B" stroke-width="1"/>
<path d="M720 0V800" stroke="#F59E0B" stroke-width="1"/>
<path d="M760 0V800" stroke="#F59E0B" stroke-width="1"/>
<path d="M0 40H800" stroke="#F59E0B" stroke-width="1"/>
<path d="M0 80H800" stroke="#F59E0B" stroke-width="1"/>
<path d="M0 120H800" stroke="#F59E0B" stroke-width="1"/>
<path d="M0 160H800" stroke="#F59E0B" stroke-width="1"/>
<path d="M0 200H800" stroke="#F59E0B" stroke-width="1"/>
<path d="M0 240H800" stroke="#F59E0B" stroke-width="1"/>
<path d="M0 280H800" stroke="#F59E0B" stroke-width="1"/>
<path d="M0 320H800" stroke="#F59E0B" stroke-width="1"/>
<path d="M0 360H800" stroke="#F59E0B" stroke-width="1"/>
<path d="M0 400H800" stroke="#F59E0B" stroke-width="1"/>
<path d="M0 440H800" stroke="#F59E0B" stroke-width="1"/>
<path d="M0 480H800" stroke="#F59E0B" stroke-width="1"/>
<path d="M0 520H800" stroke="#F59E0B" stroke-width="1"/>
<path d="M0 560H800" stroke="#F59E0B" stroke-width="1"/>
<path d="M0 600H800" stroke="#F59E0B" stroke-width="1"/>
<path d="M0 640H800" stroke="#F59E0B" stroke-width="1"/>
<path d="M0 680H800" stroke="#F59E0B" stroke-width="1"/>
<path d="M0 720H800" stroke="#F59E0B" stroke-width="1"/>
<path d="M0 760H800" stroke="#F59E0B" stroke-width="1"/>
</g>
<circle cx="584" cy="208" r="122" fill="#F59E0B" fill-opacity="0.10"/>
<circle cx="274" cy="576" r="174" fill="#3B82F6" fill-opacity="0.10"/>
<path d="M184 478L262 400H514C546.033 400 572 425.967 572 458V502C572 534.033 546.033 560 514 560H464" stroke="#F59E0B" stroke-width="18" stroke-linecap="round"/>
<path d="M182 478V360C182 335.699 201.699 316 226 316H390C414.301 316 434 335.699 434 360V478" stroke="#F59E0B" stroke-width="18" stroke-linecap="round"/>
<path d="M230 424H434" stroke="#F9FAFB" stroke-opacity="0.9" stroke-width="18" stroke-linecap="round"/>
<circle cx="248" cy="592" r="42" fill="#F59E0B"/>
<circle cx="458" cy="592" r="42" fill="#F59E0B"/>
</svg>